<?xml version="1.0" standalone="no"?>
<!DOCTYPE svg PUBLIC "-//W3C//DTD SVG 20010904//EN"
 "http://www.w3.org/TR/2001/REC-SVG-20010904/DTD/svg10.dtd">
<svg version="1.0" xmlns="http://www.w3.org/2000/svg"
 width="1797.000000pt" height="1797.000000pt" viewBox="0 0 1797.000000 1797.000000"
 preserveAspectRatio="xMidYMid meet">
<metadata>
Created by potrace 1.14, written by Peter Selinger 2001-2017
</metadata>
<g transform="translate(0.000000,1797.000000) scale(0.100000,-0.100000)"
fill="#000000" stroke="none">
<path d="M7156 16632 c-2 -4 -4 -140 -4 -302 l1 -295 -602 -3 -601 -2 0 -300
0 -300 -305 0 -305 0 0 -305 0 -305 -300 0 -300 0 0 -300 0 -300 -305 0 -305
0 0 -605 0 -605 -300 0 -300 0 0 -1210 0 -1210 300 0 300 0 0 -300 0 -300
-300 0 -300 0 0 -300 0 -300 -302 -2 -303 -3 -3 -302 -2 -303 -300 0 -300 0 0
-605 0 -605 300 0 300 0 0 -300 0 -300 1210 0 1210 0 0 -300 0 -300 -300 0
-300 0 0 -605 0 -605 -305 0 -305 0 0 -605 0 -605 303 -2 302 -3 3 -602 2
-603 300 0 300 0 2 -302 3 -303 303 -3 304 -2 -4 -300 -3 -300 602 0 603 0 2
-303 3 -302 2420 0 c2144 0 2420 2 2421 15 1 8 2 144 2 302 l2 288 601 2 601
3 -1 297 -2 298 303 2 303 3 3 303 2 302 300 0 300 0 0 300 0 300 303 2 302 3
3 602 2 603 300 0 300 0 0 1815 0 1815 -300 0 -300 0 -2 298 -3 297 -302 3
-303 2 0 -300 0 -300 -305 0 -305 0 0 -300 0 -300 -600 0 -600 0 0 295 0 295
300 0 300 0 2 303 3 302 303 3 302 2 0 605 0 605 300 0 300 0 0 1510 0 1510
-300 0 -300 0 0 605 0 605 -305 0 -305 0 0 300 0 300 -300 0 -300 0 0 305 0
305 -305 0 -305 0 0 300 0 300 -601 2 -601 3 -2 300 -1 300 -1812 3 c-996 1
-1814 -1 -1817 -6z m3626 -904 l3 -303 603 -3 602 -2 0 -300 0 -300 300 0 300
0 0 -300 0 -300 303 -2 302 -3 3 -602 2 -603 300 0 300 0 0 -1510 0 -1510
-300 0 -300 0 0 -605 0 -605 -305 0 -305 0 0 -300 0 -300 -300 0 -300 0 0
-300 0 -300 -300 0 -300 0 0 -305 0 -305 1210 0 1211 0 -1 298 -1 297 300 3
301 2 0 300 0 300 300 0 300 0 0 -1810 0 -1810 -300 0 -300 0 0 -600 0 -600
-302 -2 -303 -3 -3 -302 -2 -303 -300 0 -300 0 0 -300 0 -300 -605 0 -605 0 0
-305 0 -305 -2415 0 -2415 0 0 305 0 305 -605 0 -605 0 0 300 0 300 -300 0
-300 0 0 605 0 605 -305 0 -305 0 0 605 0 605 305 0 305 0 0 600 0 600 600 0
600 0 0 -300 0 -300 1516 0 1515 0 -2 288 c-1 158 -1 293 0 300 1 9 68 12 301
12 l300 0 0 305 0 305 -305 0 -305 0 0 -300 0 -300 -1510 0 -1510 0 0 300 0
300 -300 0 -300 0 0 305 0 305 -1510 0 -1510 0 0 600 0 601 300 -3 300 -3 0
303 0 302 305 0 305 0 0 300 0 300 300 0 300 0 0 -602 0 -603 582 3 c321 1
593 0 606 -3 l22 -5 0 -595 0 -595 300 0 300 0 0 600 0 600 -300 0 -300 0 0
300 0 300 -302 2 -303 3 -3 303 -2 302 -300 0 -300 0 0 300 0 300 -300 0 -300
0 0 1210 0 1210 300 0 300 0 2 603 3 602 303 3 302 2 0 300 0 300 300 0 300 0
0 300 0 300 603 2 602 3 3 303 2 302 1810 0 1810 0 2 -302z"/>
<path d="M7728 12402 l-568 -2 0 -300 0 -300 -305 0 -305 0 0 -905 0 -905 303
-2 302 -3 3 -303 2 -302 601 2 600 3 2 300 2 300 303 3 302 2 0 905 0 905
-302 2 -303 3 -2 275 c-4 347 -1 324 -38 325 -16 0 -285 -1 -597 -3z m632
-1207 l0 -605 -300 0 -300 0 0 605 0 605 300 0 300 0 0 -605z"/>
<path d="M11990 5460 l0 -300 300 0 300 0 0 -305 0 -305 -300 0 -300 0 0 -300
0 -300 -300 0 -300 0 0 300 0 300 -305 0 -305 0 0 -300 0 -300 303 -2 302 -3
3 -297 2 -298 -905 -2 -905 -3 -2 300 -3 300 -302 3 -303 2 0 -305 0 -305 300
0 300 0 0 -300 0 -300 910 0 910 0 0 300 0 300 300 0 300 0 2 303 3 302 303 3
302 2 0 300 0 300 300 0 300 0 2 303 3 302 303 3 302 2 0 300 0 300 -305 0
-305 0 0 -300 0 -300 -300 0 -300 0 0 300 0 300 -305 0 -305 0 0 -300z"/>
</g>
</svg>
